<svg width="16" height="16" viewBox="0 0 16 16" fill="none" xmlns="http://www.w3.org/2000/svg">
<g clip-path="url(#clip0_6978_433)">
<path fill-rule="evenodd" clip-rule="evenodd" d="M11.9687 1.79688H8.80448L1.63027 7.20436L4.67486 7.20436L10.3121 3.02501H11.2251L0.410868 11.2711L3.45545 11.2711L3.45976 11.2678H4.40336L4.39353 11.2752H4.4222L-0.00349918 14.6074L3.04109 14.6074L7.95133 10.8951L14.7816 5.83633H11.6174L5.80153 10.2151H4.8536L16 1.79688H13.3752H12.8358H11.9687L11.9687 1.79688Z" fill="#141414"/>
<path fill-rule="evenodd" clip-rule="evenodd" d="M11.9687 1H8.80448L1.63027 6.40748L4.67486 6.40748L10.3121 2.22814H11.2251L0.410868 10.4742L3.45545 10.4742L3.45976 10.471H4.40336L4.39353 10.4784H4.4222L-0.00349918 13.8105L3.04109 13.8105L7.95133 10.0982L14.7816 5.03946H11.6174L5.80153 9.41826H4.8536L16 1H13.3752H12.8358H11.9687L11.9687 1Z" fill="#FAFAFA"/>
</g>
<defs>
<clipPath id="clip0_6978_433">
<rect width="16" height="16" fill="white"/>
</clipPath>
</defs>
</svg>
