<svg width="32" height="32" viewBox="0 0 32 32" fill="none" xmlns="http://www.w3.org/2000/svg">
<g clip-path="url(#clip0_6978_407)">
<path fill-rule="evenodd" clip-rule="evenodd" d="M23.9375 3.60938H17.6091L3.26099 14.4241L9.35005 14.4241L20.6244 6.06561H22.4504L0.822319 22.5574L4.99002 22.5574V22.5585H8.8491L-0.000423431 29.2213L6.08863 29.2213L16.9804 20.9869L29.5469 11.6797H23.2185L11.5658 20.4531H9.69763L32 3.60938H26.7344V3.60938H23.9375L23.9375 3.60938Z" fill="#141414"/>
<path fill-rule="evenodd" clip-rule="evenodd" d="M23.9375 2H17.6091L3.26099 12.8148L9.35005 12.8148L20.6244 4.45623H22.4504L0.822319 20.9481L4.99002 20.9481V20.9491H8.8491L-0.000423431 27.612L6.08863 27.612L16.9804 19.3775L29.5469 10.0703H23.2185L11.5658 18.8438H9.69763L32 2.00001H26.7344V2H23.9375L23.9375 2Z" fill="#FAFAFA"/>
</g>
<defs>
<clipPath id="clip0_6978_407">
<rect width="32" height="32" fill="white"/>
</clipPath>
</defs>
</svg>
